<?xml version="1.0" encoding="utf-8"?>
<!-- Generator: Adobe Illustrator 23.0.2, SVG Export Plug-In . SVG Version: 6.00 Build 0)  -->
<svg version="1.1" id="Camada_1" xmlns="http://www.w3.org/2000/svg" xmlns:xlink="http://www.w3.org/1999/xlink" x="0px" y="0px"
	 viewBox="0 0 1920 1080" style="enable-background:new 0 0 1920 1080;" xml:space="preserve">
<style type="text/css">
	.st0{fill:#FFBF00;}
	.st1{fill:#FFFFFF;}
</style>
<path class="st0" d="M1303.65,883.65H730.88c-63.25,0-114.53-51.27-114.53-114.53V196.35h572.77c63.25,0,114.53,51.27,114.53,114.53
	V883.65z"/>
<path class="st1" d="M785.69,425.96c-31.54,0-57.11,25.57-57.11,57.11c0,31.54,25.57,57.11,57.11,57.11
	c31.54,0,57.11-25.57,57.11-57.11C842.8,451.53,817.23,425.96,785.69,425.96 M785.69,512.68c-16.33,0-29.56-13.23-29.56-29.56
	s13.23-29.56,29.56-29.56c16.33,0,29.56,13.23,29.56,29.56S802.02,512.68,785.69,512.68"/>
<path class="st1" d="M1130.27,425.96c-31.54,0-57.11,25.57-57.11,57.11c0,31.54,25.57,57.11,57.11,57.11
	c31.54,0,57.11-25.57,57.11-57.11C1187.39,451.53,1161.82,425.96,1130.27,425.96 M1130.27,512.68c-16.33,0-29.56-13.23-29.56-29.56
	s13.23-29.56,29.56-29.56c16.33,0,29.56,13.23,29.56,29.56S1146.6,512.68,1130.27,512.68"/>
<path class="st1" d="M1059.71,466.14L1059.71,466.14c0-22.02-17.85-39.87-39.87-39.87h-36.45c-8.16,0-14.77,6.61-14.77,14.77v82.78
	c0,8.16,6.61,14.77,14.77,14.77c8.16,0,14.77-6.61,14.77-14.77v-17.8h18.95l14.67,25.41c4.2,6.99,13.28,9.25,20.27,5.05
	c6.99-4.2,9.26-13.28,5.05-20.27l-11.4-19.74C1054.25,489.15,1059.71,478.29,1059.71,466.14 M1016.4,483.93h-18.26v-32.17h18.26
	c8.88,0,16.08,7.2,16.08,16.08C1032.49,476.73,1025.29,483.93,1016.4,483.93"/>
<path class="st1" d="M920.96,443.28v51.73c0,8.42-6.83,15.25-15.25,15.25c-8.42,0-15.26-6.83-15.26-15.25v-51.73
	c0-8.32-6.74-15.06-15.06-15.06c-8.32,0-15.06,6.74-15.06,15.06v51.73c0,25.06,20.32,45.38,45.38,45.38h0
	c25.06,0,45.38-20.32,45.38-45.38v-51.73c0-8.32-6.74-15.06-15.07-15.06C927.7,428.22,920.96,434.96,920.96,443.28"/>
<path class="st1" d="M980.84,553.58h-44.76c-6.33,0-11.46,5.13-11.46,11.46V642c0,6.33,5.13,11.46,11.46,11.46h3.49
	c6.33,0,11.46-5.13,11.46-11.46v-22.82h26.03c6.33,0,11.46-5.13,11.46-11.46c0-6.33-5.13-11.46-11.46-11.46h-26.03V576.5h29.81
	c6.33,0,11.46-5.13,11.46-11.46C992.31,558.71,987.18,553.58,980.84,553.58"/>
<path class="st1" d="M872.95,560.98c-2.32-4.57-6.94-7.41-12.06-7.41s-9.74,2.84-12.06,7.41l-37.37,73.42
	c-2.14,4.23-1.94,9.16,0.54,13.2c2.48,4.04,6.79,6.45,11.53,6.45c5.19,0,9.84-2.89,12.13-7.54l25.26-50.64l25.2,50.22
	c2.29,4.66,6.94,7.56,12.14,7.56c4.74,0,9.05-2.41,11.53-6.45c2.48-4.04,2.68-8.97,0.53-13.2L872.95,560.98z"/>
<path class="st1" d="M1152.66,560.75c-2.31-4.56-6.93-7.39-12.04-7.39c-5.11,0-9.72,2.83-12.04,7.39l-37.3,73.27
	c-2.14,4.22-1.94,9.14,0.54,13.17c2.48,4.03,6.78,6.44,11.51,6.44c5.18,0,9.82-2.89,12.1-7.53l25.21-50.53l25.15,50.12
	c2.29,4.65,6.93,7.54,12.11,7.54c4.73,0,9.03-2.41,11.5-6.44c2.47-4.03,2.67-8.95,0.53-13.18L1152.66,560.75z"/>
<path class="st1" d="M1083.95,589.11L1083.95,589.11c0-19.62-15.9-35.52-35.52-35.52h-32.47c-7.27,0-13.16,5.89-13.16,13.16v73.74
	c0,7.27,5.89,13.16,13.16,13.16c7.27,0,13.16-5.89,13.16-13.16v-15.86h16.88l13.07,22.63c3.74,6.23,11.83,8.24,18.06,4.5
	c6.23-3.74,8.24-11.83,4.5-18.05l-10.16-17.59C1079.1,609.61,1083.95,599.93,1083.95,589.11 M1045.38,604.96h-16.26V576.3h16.26
	c7.91,0,14.33,6.41,14.33,14.33C1059.71,598.54,1053.29,604.96,1045.38,604.96"/>
<path class="st1" d="M769.46,593.12c-9.16-1.23-14.6-2.9-14.41-9.34c0.21-7.27,7.66-8.56,13.28-8.39
	c8.31,0.24,11.44,4.32,12.48,8.34c1.27,4.86,5.84,8.14,10.86,8.29c7.5,0.22,13.2-6.82,11.26-14.07
	c-2.91-10.85-11.23-23.96-34.36-24.64c-19.6-0.58-37.6,9.46-38.21,30.3c-0.59,20.02,16.75,27.53,34.27,29.14
	c6.98,0.62,17.66,1.34,17.39,10.53c-0.17,5.76-7.81,8.83-14.94,8.62c-8.61-0.25-12.28-4.81-13.79-9.26
	c-1.74-5.1-6.27-8.73-11.66-8.89h-0.02c-8.09-0.24-14.53,7.16-12.72,15.05c2.54,11.05,11.21,24.12,37.83,24.9
	c19.6,0.58,39.52-9.4,40.11-29.55C807.51,600.83,789.83,595.51,769.46,593.12"/>
</svg>
