<?xml version="1.0" encoding="utf-8"?>
<!-- Generator: Adobe Illustrator 23.0.2, SVG Export Plug-In . SVG Version: 6.00 Build 0)  -->
<svg version="1.1" id="Camada_1" xmlns="http://www.w3.org/2000/svg" xmlns:xlink="http://www.w3.org/1999/xlink" x="0px" y="0px"
	 viewBox="0 0 744 737.1" style="enable-background:new 0 0 744 737.1;" xml:space="preserve">
<style type="text/css">
	.st0{fill:#FFBF00;}
	.st1{fill:#FFFFFF;}
</style>
<g>
	<path class="st0" d="M715.7,712.2H142.9c-63.3,0-114.5-51.3-114.5-114.5V24.9h572.8c63.3,0,114.5,51.3,114.5,114.5V712.2z"/>
	<path class="st1" d="M197.7,254.5c-31.5,0-57.1,25.6-57.1,57.1s25.6,57.1,57.1,57.1s57.1-25.6,57.1-57.1S229.2,254.5,197.7,254.5
		 M197.7,341.3c-16.3,0-29.6-13.2-29.6-29.6s13.2-29.6,29.6-29.6s29.6,13.2,29.6,29.6S214,341.3,197.7,341.3"/>
	<path class="st1" d="M542.3,254.5c-31.5,0-57.1,25.6-57.1,57.1s25.6,57.1,57.1,57.1s57.1-25.6,57.1-57.1
		C599.4,280.1,573.8,254.5,542.3,254.5 M542.3,341.3c-16.3,0-29.6-13.2-29.6-29.6s13.2-29.6,29.6-29.6c16.3,0,29.6,13.2,29.6,29.6
		S558.6,341.3,542.3,341.3"/>
	<path class="st1" d="M471.7,294.7L471.7,294.7c0-22-17.8-39.9-39.9-39.9h-36.5c-8.2,0-14.8,6.6-14.8,14.8v82.8
		c0,8.2,6.6,14.8,14.8,14.8c8.2,0,14.8-6.6,14.8-14.8v-17.8h19l14.7,25.4c4.2,7,13.3,9.3,20.3,5s9.3-13.3,5.1-20.3L457.7,325
		C466.3,317.7,471.7,306.9,471.7,294.7 M428.4,312.5h-18.3v-32.2h18.3c8.9,0,16.1,7.2,16.1,16.1
		C444.5,305.3,437.3,312.5,428.4,312.5"/>
	<path class="st1" d="M333,271.9v51.7c0,8.4-6.8,15.3-15.3,15.3s-15.3-6.8-15.3-15.3v-51.7c0-8.3-6.7-15.1-15.1-15.1
		s-15.1,6.7-15.1,15.1v51.7c0,25.1,20.3,45.4,45.4,45.4l0,0c25.1,0,45.4-20.3,45.4-45.4v-51.7c0-8.3-6.7-15.1-15.1-15.1
		C339.7,256.8,333,263.5,333,271.9"/>
	<path class="st1" d="M392.8,382.2h-44.8c-6.3,0-11.5,5.1-11.5,11.5v77c0,6.3,5.1,11.5,11.5,11.5h3.5c6.3,0,11.5-5.1,11.5-11.5
		v-22.8h26c6.3,0,11.5-5.1,11.5-11.5s-5.1-11.5-11.5-11.5h-26v-19.8h29.8c6.3,0,11.5-5.1,11.5-11.5
		C404.3,387.3,399.2,382.2,392.8,382.2"/>
	<path class="st1" d="M285,389.6c-2.3-4.6-6.9-7.4-12.1-7.4s-9.7,2.8-12.1,7.4L223.5,463c-2.1,4.2-1.9,9.2,0.5,13.2
		c2.5,4,6.8,6.5,11.5,6.5c5.2,0,9.8-2.9,12.1-7.5l25.3-50.6l25.2,50.2c2.3,4.7,6.9,7.6,12.1,7.6c4.7,0,9-2.4,11.5-6.5
		c2.5-4,2.7-9,0.5-13.2L285,389.6z"/>
	<path class="st1" d="M564.7,389.3c-2.3-4.6-6.9-7.4-12-7.4s-9.7,2.8-12,7.4l-37.3,73.3c-2.1,4.2-1.9,9.1,0.5,13.2
		c2.5,4,6.8,6.4,11.5,6.4c5.2,0,9.8-2.9,12.1-7.5l25.2-50.5l25.2,50.1c2.3,4.7,6.9,7.5,12.1,7.5c4.7,0,9-2.4,11.5-6.4
		s2.7-9,0.5-13.2L564.7,389.3z"/>
	<path class="st1" d="M495.9,417.7L495.9,417.7c0-19.6-15.9-35.5-35.5-35.5H428c-7.3,0-13.2,5.9-13.2,13.2v73.7
		c0,7.3,5.9,13.2,13.2,13.2c7.3,0,13.2-5.9,13.2-13.2v-15.9H458l13.1,22.6c3.7,6.2,11.8,8.2,18.1,4.5c6.2-3.7,8.2-11.8,4.5-18
		l-10.2-17.6C491.1,438.2,495.9,428.5,495.9,417.7 M457.4,433.5h-16.3v-28.7h16.3c7.9,0,14.3,6.4,14.3,14.3
		C471.7,427.1,465.3,433.5,457.4,433.5"/>
	<path class="st1" d="M181.5,421.7c-9.2-1.2-14.6-2.9-14.4-9.3c0.2-7.3,7.7-8.6,13.3-8.4c8.3,0.2,11.4,4.3,12.5,8.3
		c1.3,4.9,5.8,8.1,10.9,8.3c7.5,0.2,13.2-6.8,11.3-14.1c-2.9-10.8-11.2-24-34.4-24.6c-19.6-0.6-37.6,9.5-38.2,30.3
		c-0.6,20,16.8,27.5,34.3,29.1c7,0.6,17.7,1.3,17.4,10.5c-0.2,5.8-7.8,8.8-14.9,8.6c-8.6-0.3-12.3-4.8-13.8-9.3
		c-1.7-5.1-6.3-8.7-11.7-8.9h0c-8.1-0.2-14.5,7.2-12.7,15c2.5,11,11.2,24.1,37.8,24.9c19.6,0.6,39.5-9.4,40.1-29.5
		C219.5,429.4,201.8,424.1,181.5,421.7"/>
</g>
</svg>
